<svg height="471pt" viewBox="-32 0 471 471.53332" width="471pt" xmlns="http://www.w3.org/2000/svg"><path d="m291.632812 313.800781-35 32.574219c-2.425781 2.257812-2.5625 6.054688-.304687 8.480469s6.054687 2.558593 8.480469.300781l24.914062-23.183594v70.851563c0 3.316406 2.683594 6 6 6 3.3125 0 6-2.683594 6-6v-70.851563l24.910156 23.183594c2.425782 2.257812 6.222657 2.125 8.480469-.300781 2.257813-2.425781 2.121094-6.222657-.304687-8.480469l-35-32.574219c-2.304688-2.144531-5.871094-2.144531-8.175782 0zm0 0"/><path d="m15.546875 380.46875c8.726563 8.691406 20.550781 13.554688 32.867187 13.519531h.230469l140.96875-.796875c16.554688 53.753906 70.695313 86.636719 126.03125 76.539063 55.332031-10.101563 94.367188-59.988281 90.859375-116.128907-3.503906-56.136718-48.445312-100.78125-104.605468-103.917968l-.765626-139.660156-.007812-1.71875c-.007812-1.59375-.648438-3.121094-1.78125-4.242188l-103.335938-102.128906c-.984374-.972656-2.273437-1.578125-3.648437-1.707032l-2.148437-.1992182c-.203126-.0195313-.402344-.0195313-.601563-.0273438l-142.863281.6875c-25.792969.125-46.601563 21.132812-46.480469 46.925781l1.441406 299.894531c.027344 12.394532 5.011719 24.261719 13.839844 32.960938zm379.175781-19.960938c0 54.675782-44.324218 99-99 99-54.675781 0-99-44.324218-99-99 0-54.675781 44.324219-99 99-99 54.648438.0625 98.9375 44.351563 99 99zm-113.917968-257.894531-48.058594.234375c-19.152344.058594-34.75-15.386718-34.871094-34.542968l-.230469-47.882813zm-258.488282-79.648437c6.460938-6.5625 15.28125-10.265625 24.492188-10.285156l138.792968-.664063.273438 56.347656c.148438 25.691407 21.003906 46.453125 46.699219 46.484375h.226562l56.351563-.269531.742187 135.082031c-31.996093 1.695313-61.703125 17.128906-81.484375 42.335938-19.78125 25.207031-27.710937 57.726562-21.75 89.210937l-138.078125.78125c-19.167969.09375-34.78125-15.371093-34.875-34.542969l-1.441406-299.890624c-.066406-9.210938 3.550781-18.0625 10.050781-24.589844zm0 0"/><path d="m165.585938 221.519531h-20.347657c-3.3125 0-6 2.683594-6 6 0 3.3125 2.6875 6 6 6h20.347657c3.3125 0 6-2.6875 6-6 0-3.316406-2.6875-6-6-6zm0 0"/><path d="m66.792969 182.632812h168.941406c3.316406 0 6-2.683593 6-6 0-3.3125-2.683594-6-6-6h-168.941406c-3.3125 0-6 2.6875-6 6 0 3.316407 2.6875 6 6 6zm0 0"/><path d="m66.792969 233.519531h52.660156c3.3125 0 6-2.6875 6-6 0-3.316406-2.6875-6-6-6h-52.660156c-3.3125 0-6 2.683594-6 6 0 3.3125 2.6875 6 6 6zm0 0"/></svg>